<svg width="1080" height="1080" viewBox="0 0 1080 1080" fill="none" xmlns="http://www.w3.org/2000/svg">
<path d="M239.25 711.5L553.946 165.069C565.028 145.826 592.741 145.669 604.041 164.784L702 330.5M802.141 499.906L787.75 477.5M771.328 447.781L748.25 409.5M718.75 359L730.75 378M723.25 711.5L774.25 625.25L799.75 582.125L805.25 572.5" stroke="#0070E0" stroke-width="17" stroke-linecap="round"/>
<path d="M721.75 711.5H595.951C591.466 711.5 587.143 709.826 583.828 706.805L461.289 595.142C460.614 594.527 461.049 593.403 461.963 593.403H786.297C788.262 593.403 789.142 590.929 787.522 589.817C758.417 569.849 614.792 471.258 534.25 415M357.75 711.5C357.75 711.5 457.323 535.355 524.177 417.09C527.015 412.069 532.297 409 538.065 409C615.32 409 730.606 409 745.618 409C746.369 409 746.834 409.797 746.487 410.463L590.75 709" stroke="#0070E0" stroke-width="17" stroke-linecap="round"/>
<circle cx="824.75" cy="537" r="15" fill="#0070E0"/>
<path d="M359.237 911.5H340.717V874.459H237.188V855.939H340.717V800.378H274.229C265.833 800.378 258.116 802.477 251.078 806.675C244.04 810.749 238.423 816.305 234.225 823.343C230.15 830.381 228.113 838.159 228.113 846.679V911.5H209.593V846.679C209.593 837.789 211.259 829.455 214.593 821.676C217.927 813.774 222.557 806.86 228.483 800.933C234.41 794.883 241.262 790.192 249.041 786.858C256.943 783.524 265.339 781.857 274.229 781.857H359.237V911.5ZM579.978 911.5H554.976L516.083 874.459H459.226V856.124H533.678C538.863 856.124 543.555 854.889 547.753 852.42C551.951 849.827 555.285 846.432 557.754 842.234C560.223 837.912 561.458 833.221 561.458 828.158C561.458 822.973 560.223 818.281 557.754 814.083C555.285 809.885 551.951 806.551 547.753 804.082C543.555 801.612 538.863 800.378 533.678 800.378H448.854V911.5H430.334V781.857H533.678C542.197 781.857 549.975 783.956 557.013 788.154C564.051 792.229 569.607 797.785 573.682 804.823C577.88 811.86 579.978 819.639 579.978 828.158C579.978 835.813 578.25 842.913 574.793 849.457C571.459 856.001 566.829 861.433 560.903 865.755C555.099 869.953 548.494 872.669 541.086 873.904L579.978 911.5ZM785.659 800.378L666.573 892.98H785.659V911.5H635.829V892.98L755.656 800.378H635.829V781.857H785.659V800.378ZM867.263 911.5H848.743V781.857H867.263V911.5Z" fill="#0070E0"/>
</svg>
