<svg width="155" height="83" viewBox="0 0 155 83" fill="none" xmlns="http://www.w3.org/2000/svg">
<path fill-rule="evenodd" clip-rule="evenodd" d="M58.6188 60.6126V61.7286L58.2043 61.7586L57.7898 61.7885V62.4225V63.0565L58.2043 63.0864L58.6188 63.1165V65.5492V67.982H59.3503H60.0819V65.5436V63.1053H60.5695H61.0572V62.4225V61.7398H60.5695H60.0819V60.6181V59.4965H59.3503H58.6188V60.6126ZM8.38818 60.3255V61.057H9.1197H9.85121V64.5195V67.982H10.6302H11.4092L11.4349 64.5439L11.4605 61.1058L12.2164 61.0773L12.9723 61.0488V60.3214V59.594H10.6803H8.38818V60.3255ZM15.9959 61.7334C15.2705 61.9549 14.5372 62.5354 14.1095 63.2266C14.0185 63.3738 13.8747 63.7645 13.7901 64.0948C13.4053 65.5969 14.1061 67.1279 15.4905 67.8095C16.9464 68.5263 18.692 68.0577 19.5931 66.7083C21.0557 64.5181 19.5079 61.6172 16.8944 61.6506C16.5344 61.6552 16.13 61.6925 15.9959 61.7334ZM30.2246 61.7769C29.3819 62.078 28.7452 62.6531 28.322 63.4954C28.0924 63.9525 28.052 64.1545 28.0488 64.8609C28.0455 65.5565 28.0862 65.7786 28.3015 66.2408C28.6284 66.9428 29.228 67.542 29.929 67.8676C30.7004 68.226 31.8018 68.2267 32.5769 67.8696C33.4631 67.4613 34.1009 66.6958 34.3859 65.6984C34.8245 64.1634 33.9298 62.4066 32.4222 61.8426C31.8039 61.6112 30.7744 61.5804 30.2246 61.7769ZM38.3358 61.7961C38.1505 61.8765 37.8542 62.0526 37.6774 62.1874L37.3561 62.4325V62.0861V61.7398H36.5759H35.7956V64.8609V67.982H36.5686H37.3418L37.3733 66.0069C37.4001 64.3294 37.4313 63.9835 37.5804 63.7106C37.9185 63.0911 38.7871 62.8107 39.2857 63.16C39.7742 63.5021 39.8349 63.7904 39.8747 65.9582L39.9118 67.982H40.6262H41.3408L41.3723 66.0069C41.4022 64.1327 41.4156 64.013 41.6328 63.6638C41.9037 63.2279 42.2857 63.0077 42.7709 63.0077C43.7045 63.0077 43.8234 63.3207 43.8731 65.9094L43.9128 67.982H44.6407H45.3686L45.337 65.4705C45.3029 62.7715 45.2821 62.6536 44.7523 62.159C43.9203 61.382 42.1031 61.5219 41.4437 62.4136C41.3211 62.5795 41.1962 62.7145 41.1661 62.714C41.1359 62.7133 41.0157 62.5651 40.8988 62.3847C40.4702 61.7226 39.1854 61.4276 38.3358 61.7961ZM48.3289 61.8717C47.7551 62.1395 47.1689 62.7543 46.8852 63.386C46.5759 64.0749 46.5396 65.4229 46.811 66.1432C47.4918 67.9496 49.5806 68.7144 51.0084 67.6802C51.2235 67.5243 51.4219 67.3968 51.4491 67.3968C51.4764 67.3968 51.4988 67.5285 51.4988 67.6894V67.982H52.2303H52.9618V64.8609V61.7398H52.2303H51.4988V62.0928V62.4456L51.1418 62.1734C50.6433 61.7932 50.1872 61.6513 49.4505 61.6475C48.9855 61.6451 48.6866 61.7048 48.3289 61.8717ZM56.202 61.8504C56.026 61.9629 55.8194 62.1707 55.7426 62.312C55.6031 62.5686 55.603 62.5685 55.5991 62.1498L55.5952 61.7309L54.9369 61.7597L54.2785 61.7885L54.2528 64.8853L54.227 67.982H55.0087H55.7903L55.7909 66.0557C55.7915 63.9836 55.8646 63.5097 56.2427 63.1317C56.435 62.9394 56.547 62.9024 56.7954 62.9489C57.1021 63.0064 57.1104 62.9978 57.3244 62.4096C57.444 62.081 57.5182 61.7739 57.4894 61.7272C57.3851 61.5585 56.53 61.6403 56.202 61.8504ZM63.7613 61.7855C62.8227 62.1445 61.9679 63.0863 61.7326 64.0205C61.5785 64.6323 61.6632 65.6833 61.9117 66.2451C62.1945 66.8844 62.836 67.5416 63.4816 67.8535C63.9393 68.0746 64.1635 68.1195 64.8123 68.1202C65.465 68.1209 65.6931 68.0753 66.2071 67.841C68.619 66.7415 68.7396 63.2775 66.4092 62.033C65.8645 61.742 65.6852 61.6975 64.9586 61.6729C64.4085 61.6541 64.0056 61.6921 63.7613 61.7855ZM20.8727 61.8164C20.8727 61.8631 20.9793 62.1611 21.1097 62.4789C21.24 62.7966 21.7609 64.071 22.2673 65.3109L23.1879 67.5654L22.5718 68.8993L21.9555 70.233L22.7353 70.2049L23.5151 70.1766L25.4092 66.0313C26.4508 63.7514 27.3047 61.8514 27.3066 61.8088C27.3085 61.7663 26.9698 61.7444 26.5541 61.7601L25.7982 61.7885L24.9263 63.7149C24.4467 64.7743 24.0297 65.6406 23.9997 65.6398C23.9696 65.639 23.5899 64.7721 23.1558 63.7135L22.3665 61.7885L21.6196 61.7601C21.2088 61.7444 20.8727 61.7697 20.8727 61.8164ZM16.2885 63.1112C15.9728 63.2442 15.5279 63.6684 15.3533 64.0026C15.1336 64.4231 15.1782 65.4238 15.4367 65.8759C15.7589 66.4393 16.0943 66.6459 16.7663 66.6945C17.4616 66.7448 17.9609 66.5114 18.3384 65.9597C18.5438 65.6597 18.5806 65.4938 18.5806 64.8676C18.5806 64.0545 18.4166 63.7044 17.8445 63.2971C17.5092 63.0583 16.6559 62.9563 16.2885 63.1112ZM30.5774 63.14C30.2106 63.3113 29.7928 63.7522 29.6571 64.1113C29.4753 64.5923 29.5326 65.4529 29.7743 65.8759C30.0966 66.4393 30.432 66.6459 31.1039 66.6945C31.7993 66.7448 32.2986 66.5114 32.6761 65.9597C32.882 65.6589 32.9183 65.4943 32.9183 64.86C32.9183 64.1922 32.8895 64.0763 32.6435 63.754C32.4925 63.5559 32.2655 63.3261 32.1391 63.2433C31.8135 63.03 30.9373 62.972 30.5774 63.14ZM49.0116 63.1892C47.6184 64.0498 47.8642 66.2836 49.3994 66.7134C50.4762 67.0149 51.5932 66.0665 51.5957 64.8488C51.5966 64.4744 51.3296 63.7801 51.0809 63.51C50.6124 63.001 49.5762 62.8404 49.0116 63.1892ZM64.1199 63.1935C62.8665 63.7628 62.7822 65.6881 63.9757 66.4923C64.3692 66.7575 65.2015 66.7952 65.6412 66.5679C66.0127 66.3757 66.3729 65.8883 66.5258 65.3705C66.6746 64.8668 66.538 64.1278 66.2112 63.6689C65.9611 63.3176 65.333 63.012 64.8611 63.012C64.6733 63.012 64.3398 63.0938 64.1199 63.1935Z" fill="#718E3B"/>
<path fill-rule="evenodd" clip-rule="evenodd" d="M39.9998 24.0318L36.5489 27.4837L39.9994 30.908C41.8972 32.7913 43.4725 34.3323 43.5001 34.3323C43.5277 34.3323 45.0974 32.7848 46.9883 30.8933L50.4262 27.4543L46.9852 24.0171C45.0926 22.1266 43.5231 20.5798 43.4975 20.5798C43.4975 20.5798 41.8978 22.1332 39.9998 24.0318ZM42.0854 26.1402L40.7215 27.5067L41.8428 28.6296C42.4595 29.2472 43.0891 29.8454 43.242 29.9589L43.5197 30.1653L44.8757 28.8119L46.2315 27.4586L44.8918 26.1162C44.1548 25.3779 43.5288 24.7738 43.5005 24.7738C43.4722 24.7738 42.8354 25.3887 42.0854 26.1402ZM49.0118 33.0638L45.5998 36.4768L46.6217 37.5022L47.6435 38.5276L51.0822 35.09L54.5208 31.6522L53.5234 30.6514C52.9749 30.101 52.503 29.6506 52.475 29.6506C52.4469 29.6506 50.8885 31.1865 49.0118 33.0638ZM33.185 30.944L32.1876 31.9448L36.1621 35.9183L40.1364 39.8918H42.1839H44.2314L39.2577 34.9175C36.5223 32.1816 34.2613 29.9432 34.2333 29.9432C34.2053 29.9432 33.7336 30.3935 33.185 30.944ZM53.5954 36.8682L50.573 39.8918H52.6215H54.6701L56.6935 37.8667L58.7169 35.8415L57.7151 34.8431C57.164 34.294 56.6918 33.8446 56.6655 33.8446C56.6393 33.8446 55.2577 35.2052 53.5954 36.8682ZM28.9676 35.1615L27.9457 36.1869L29.8002 38.0414L31.6547 39.8959L33.677 39.8695L35.6992 39.843L32.8444 36.9895L29.9896 34.1361L28.9676 35.1615ZM126.015 39.2833V42.3302H124.406C123.521 42.3302 122.797 42.3637 122.797 42.4046C122.797 42.4456 123.408 43.0894 124.155 43.8353L125.514 45.1915L125.55 49.1497C125.584 52.925 125.595 53.1379 125.801 53.7572C126.102 54.6602 126.558 55.287 127.193 55.6709C128.006 56.1618 128.347 56.2291 130.014 56.2276C131.484 56.2262 132.076 56.1404 132.965 55.8001L133.233 55.6974V54.2902V52.8831L132.774 53.0211C131.334 53.4547 130.286 53.4162 129.733 52.9093L129.38 52.5866L129.353 48.8727L129.325 45.1587H131.351H133.377L131.965 43.7444L130.553 42.3302H129.942H129.332V40.9392V39.5483L127.673 37.8923L126.015 36.2364V39.2833ZM18.3972 37.3439L17.4375 38.3072L17.4725 41.2861L17.5074 44.265L16.9059 43.6875C16.2452 43.0529 15.3939 42.5964 14.5415 42.4194C13.7018 42.2451 11.9764 42.3522 11.2651 42.6229C9.62644 43.2464 8.51298 44.6078 7.97234 46.6487C7.78849 47.3429 7.76059 47.6999 7.76508 49.304C7.76957 50.8857 7.80117 51.2714 7.98083 51.9374C8.7615 54.8306 10.6958 56.2919 13.5572 56.15C15.1554 56.0708 16.2333 55.5988 17.1131 54.593L17.5418 54.1029L17.5961 54.4344C17.6261 54.6167 17.6951 55.0263 17.7497 55.3447C17.8042 55.663 17.8488 55.9391 17.8488 55.9582C17.8488 55.9773 18.2109 55.9802 18.6534 55.9646L19.4581 55.9363L19.483 46.1584C19.4966 40.7805 19.4739 36.3805 19.4323 36.3805C19.3909 36.3805 18.9251 36.8141 18.3972 37.3439ZM60.0786 38.7564C59.6779 39.1511 59.2664 39.5681 59.1642 39.683L58.9784 39.8918H60.8691H62.7598L61.8371 38.9652C61.3297 38.4556 60.8903 38.0386 60.8608 38.0386C60.8314 38.0386 60.4794 38.3616 60.0786 38.7564ZM24.9688 39.1603L24.2422 39.8918H25.7491H27.256L26.5294 39.1603C26.1298 38.758 25.7787 38.4288 25.7491 38.4288C25.7196 38.4288 25.3684 38.758 24.9688 39.1603ZM101.095 42.1888C100.06 42.4124 99.1032 42.9194 98.5276 43.5492C97.896 44.2402 97.6862 44.839 97.6906 45.939C97.6985 47.9661 98.5053 48.8726 101.458 50.1718C103.185 50.9319 103.442 51.0636 103.896 51.4199C104.339 51.7683 104.464 52.2396 104.238 52.7132C103.778 53.6768 101.42 53.6777 98.7271 52.7153C98.2056 52.5289 97.768 52.3763 97.7545 52.3763C97.741 52.3763 97.7301 53.056 97.7301 53.8868V55.3973L98.0959 55.5514C98.2971 55.6361 98.8347 55.7997 99.2907 55.9148C100.007 56.0957 100.391 56.1238 102.119 56.1216C103.974 56.1192 104.176 56.1013 104.915 55.8741C106.429 55.4083 107.322 54.6618 107.786 53.4738C107.962 53.0235 108.007 52.7108 108.011 51.8886C108.015 50.9684 107.988 50.8051 107.745 50.2793C107.245 49.1997 106.337 48.4957 104.411 47.693C101.908 46.6495 101.436 46.3386 101.436 45.7301C101.436 45.0307 101.86 44.8128 103.192 44.8276C103.897 44.8355 104.297 44.8964 104.865 45.0825L105.612 45.3271L106.767 44.2257L107.923 43.1242L107.337 42.8628C106.16 42.3365 105.041 42.1169 103.338 42.0774C102.195 42.0509 101.595 42.0807 101.095 42.1888ZM114.453 42.1801C113.51 42.3514 112.724 42.5885 111.976 42.928L111.344 43.2144L112.425 44.296L113.507 45.3776L114.129 45.1756C116.889 44.2784 118.496 44.8671 118.503 46.7781L118.505 47.3734L117.759 47.4365C117.348 47.4712 116.7 47.4996 116.318 47.4996C114.263 47.4996 112.29 48.047 111.238 48.9093C110.336 49.6484 109.884 51.145 110.1 52.6762C110.239 53.6543 110.549 54.3597 111.105 54.9628C111.862 55.7845 112.951 56.1816 114.438 56.1785C116.097 56.175 117.155 55.7749 118.198 54.7573C118.551 54.4133 118.863 54.1327 118.892 54.1337C118.92 54.1347 119.098 54.5406 119.287 55.0359L119.63 55.9363L120.921 55.9636L122.211 55.9908V50.9366C122.211 45.442 122.196 45.2552 121.655 44.2615C121.111 43.262 119.939 42.4791 118.545 42.1838C117.712 42.0072 115.416 42.0051 114.453 42.1801ZM138.998 42.2378C138.082 42.4361 136.734 42.9048 136.42 43.1347C136.271 43.2437 136.367 43.3704 137.317 44.3169L138.38 45.3771L139.001 45.1753C140.684 44.6281 142.168 44.651 142.825 45.2344C143.156 45.5285 143.372 46.1417 143.374 46.7924C143.376 47.1277 143.344 47.4028 143.303 47.4038C139.993 47.4831 138.196 47.7505 136.981 48.3446C135.408 49.114 134.676 50.6885 134.967 52.6816C135.303 54.9879 136.788 56.1838 139.309 56.1785C140.967 56.175 142.027 55.7748 143.067 54.7595C143.419 54.4168 143.731 54.1592 143.761 54.1871C143.791 54.2151 143.969 54.6201 144.157 55.0872L144.499 55.9363L145.791 55.9636L147.083 55.9908V50.9366C147.083 46.7658 147.057 45.7846 146.937 45.3226C146.541 43.8015 145.581 42.8402 143.926 42.3079C142.995 42.0086 140.239 41.9694 138.998 42.2378ZM67.7601 42.3037C67.7375 42.3451 68.5657 45.3416 69.6004 48.9626C70.635 52.5836 71.5072 55.6459 71.5385 55.7676L71.5953 55.989L73.6071 55.9627L75.6188 55.9363L75.7982 55.1561C76.0669 53.9888 76.3097 52.9402 76.849 50.6207C77.1171 49.4673 77.4936 47.8214 77.6856 46.9631C78.0584 45.2969 78.1089 45.1092 78.1679 45.1691C78.2151 45.2172 79.6413 51.3226 80.1705 53.7418C80.3875 54.7342 80.5876 55.645 80.6151 55.7657C80.6651 55.9844 80.6709 55.9851 82.6648 55.9851C84.6459 55.9851 84.6655 55.9831 84.7581 55.7657C84.8096 55.645 85.1348 54.5587 85.4808 53.3517C86.8631 48.5292 88.5746 42.5643 88.6228 42.4012C88.6705 42.2394 88.5565 42.23 86.8421 42.2549L85.0102 42.2814L84.8815 42.7203C83.8275 46.3148 82.6122 51.5757 82.6122 52.5435C82.6122 53.0515 82.5157 52.6835 82.3642 51.5976C82.1683 50.1923 81.86 48.6968 81.3083 46.4754C81.0685 45.5098 80.7784 44.3248 80.6636 43.842C80.5489 43.3592 80.4118 42.7987 80.3589 42.5965L80.2627 42.2288L78.205 42.2551L76.1473 42.2814L75.3283 45.4513C74.5508 48.4611 74.1929 50.1193 73.9182 51.9862L73.7961 52.8152L73.6176 51.6448C73.3235 49.7155 72.9877 48.187 72.1924 45.1587L71.4368 42.2814L69.6188 42.2549C68.619 42.2404 67.7825 42.2623 67.7601 42.3037ZM90.85 42.3546C90.8243 42.4217 90.8148 45.505 90.8286 49.2064L90.8539 55.9363L92.7314 55.9629L94.609 55.9893V49.111V42.2327H92.7528C91.3576 42.2327 90.885 42.263 90.85 42.3546ZM28.1875 42.4312C26.769 42.7238 25.3159 43.909 24.6041 45.3538C24.1157 46.3452 23.9413 46.9812 23.7963 48.2996C23.3899 51.9924 24.9413 54.8889 27.8461 55.8603C28.5719 56.1029 28.7457 56.1214 30.3333 56.1236C32.1166 56.1261 32.9242 55.9897 34.1128 55.4852L34.5273 55.3093V54.4281C34.5273 53.9433 34.4944 53.5467 34.4541 53.5468C34.4139 53.5468 34.1435 53.6371 33.8533 53.7474C32.7112 54.1815 31.7077 54.3588 30.382 54.3608C29.2886 54.3624 29.0335 54.3317 28.5289 54.1375C26.9486 53.5293 26.1448 52.3315 25.8912 50.2071L25.8244 49.6473L30.4441 49.6219L35.0637 49.5966L35.0532 48.3286C35.0333 45.9412 34.3193 44.3165 32.8269 43.2619C31.863 42.5808 31.2665 42.4023 29.8456 42.3691C29.175 42.3534 28.4289 42.3814 28.1875 42.4312ZM42.4764 42.3873C41.5869 42.6005 41.3222 42.6927 40.7402 42.9928C39.2345 43.7693 38.6216 45.2652 39.1335 46.9143C39.4837 48.0427 40.5069 48.7787 43.1434 49.7986C45.8502 50.8457 46.7067 51.6164 46.4838 52.8043C46.1518 54.5739 42.9519 55.058 39.8418 53.8092L39.0139 53.4768V54.4263V55.3759L39.4949 55.5829C40.4939 56.0126 41.2077 56.1214 43.0616 56.1265C44.499 56.1305 44.9224 56.0989 45.3974 55.9524C46.8061 55.5177 47.7032 54.8345 48.1722 53.8393C48.3922 53.3724 48.4248 53.1764 48.4232 52.3275C48.4216 51.4644 48.3917 51.2955 48.1635 50.8591C47.6173 49.8149 46.731 49.227 44.232 48.2514C42.3372 47.5116 41.833 47.2567 41.4122 46.8257C40.5079 45.8996 40.882 44.6133 42.1666 44.2317C43.2935 43.8972 44.7186 43.9499 46.1347 44.3786L46.7666 44.57L47.4256 43.916C47.7881 43.5563 48.0847 43.2333 48.0847 43.1982C48.0847 43.1135 47.1051 42.7504 46.3753 42.5646C45.8062 42.4196 42.8941 42.2873 42.4764 42.3873ZM56.8629 42.3962C55.6972 42.5848 53.8264 43.1871 53.6822 43.4203C53.6476 43.4765 53.8861 43.7893 54.2122 44.1155L54.8052 44.7085L55.6146 44.4492C56.6981 44.1021 57.6517 43.951 58.3154 44.0213C60.0663 44.2069 60.7643 45.0602 60.7643 47.0153V47.8611L60.018 47.9241C59.6076 47.9589 58.9219 47.9872 58.4943 47.9872C57.4621 47.9872 55.8466 48.234 54.997 48.5214C52.8068 49.2624 51.8252 50.7442 52.0951 52.9018C52.2572 54.1974 52.8883 55.1373 53.9578 55.676C54.6922 56.046 55.3508 56.1808 56.4128 56.1785C58.1013 56.1749 59.1284 55.7708 60.2043 54.6871C60.6137 54.2747 60.8801 54.0715 60.9072 54.1507C60.9312 54.2208 61.0206 54.6257 61.1056 55.0502C61.1907 55.4748 61.283 55.8588 61.3107 55.9037C61.3384 55.9484 61.69 55.9851 62.0921 55.9851H62.8232L62.7876 50.6938C62.7488 44.9459 62.7549 45.0116 62.1803 44.0312C61.7366 43.2741 60.8455 42.7126 59.7041 42.4706C59.1114 42.345 57.4485 42.3014 56.8629 42.3962ZM12.5749 44.1153C10.7381 44.6369 9.85087 46.3269 9.85087 49.304C9.85087 52.4612 10.8225 54.0889 12.9058 54.4217C13.84 54.571 15.1231 54.3626 15.8005 53.9517C16.4997 53.5276 17.0084 52.7483 17.2745 51.6936C17.4545 50.9799 17.4542 47.8713 17.274 47.0606C16.9558 45.6301 16.2469 44.6935 15.1803 44.2944C14.4754 44.0307 13.1851 43.942 12.5749 44.1153ZM28.5855 44.1369C27.9088 44.3269 27.531 44.5636 27.0202 45.1178C26.4523 45.7339 25.9487 46.9529 25.9454 47.719L25.9442 47.9872H29.4067H32.8692V47.5531C32.8692 46.541 32.4678 45.4551 31.8744 44.8617C31.1458 44.1331 29.7191 43.8188 28.5855 44.1369ZM58.5697 49.4557C55.4192 49.6389 54.2238 50.4118 54.218 52.2696C54.2155 53.04 54.4275 53.5629 54.9054 53.965C55.3656 54.3522 55.8437 54.4742 56.8629 54.4644C58.3407 54.4503 59.3905 53.9582 60.0692 52.9615C60.5508 52.2544 60.6873 51.7532 60.7401 50.4988L60.7884 49.3527L60.313 49.3674C60.0516 49.3755 59.2671 49.4152 58.5697 49.4557ZM116.137 49.7516C115.528 49.8407 114.774 50.1366 114.472 50.4049C113.916 50.8982 113.74 52.1757 114.144 52.7764C114.434 53.2068 114.806 53.3811 115.542 53.4304C116.755 53.5115 117.811 52.9368 118.274 51.9429C118.462 51.5376 118.503 51.289 118.504 50.5475L118.505 49.6453L117.603 49.6572C117.107 49.6638 116.447 49.7063 116.137 49.7516ZM141 49.7526C140.198 49.8699 139.461 50.2316 139.123 50.6743C138.865 51.0133 138.841 51.1116 138.841 51.8499C138.841 52.5994 138.86 52.6756 139.114 52.9408C139.818 53.6765 141.546 53.6078 142.482 52.8069C143.135 52.2483 143.31 51.8147 143.358 50.6451L143.399 49.6453L142.485 49.6572C141.983 49.6638 141.315 49.7067 141 49.7526ZM72.7066 61.0971C71.7761 61.3098 70.9645 61.6641 70.9238 61.8756C70.8828 62.0888 70.8898 62.0874 71.9808 61.6799C72.6204 61.441 72.8471 61.4069 73.7852 61.4082C74.7609 61.4094 74.9332 61.4384 75.6871 61.7283C78.1349 62.6694 78.103 62.6609 79.1984 62.6599C80.0981 62.6592 80.3233 62.6224 81.0516 62.3575C81.5076 62.1916 82.2757 61.9125 82.7585 61.7374C84.2987 61.1788 85.3337 61.23 87.1436 61.9545C88.7325 62.5904 89.0127 62.6577 90.0736 62.6577C91.1345 62.6577 91.4147 62.5904 93.0035 61.9545C95.2021 61.0744 95.7942 61.1119 98.9981 62.3337C99.7443 62.6183 99.9343 62.6506 100.9 62.6563C101.873 62.6622 102.05 62.634 102.802 62.3549C103.258 62.1856 104.004 61.9085 104.46 61.7392C105.432 61.3781 106.431 61.2706 107.272 61.4362C107.591 61.4988 108.394 61.7654 109.058 62.0287C111.345 62.9365 112.369 62.9314 114.617 62.0009C116.693 61.1418 117.777 61.1398 119.834 61.9913C120.993 62.471 121.461 62.6059 122.221 62.6787C123.122 62.765 123.985 62.5891 125.408 62.0294C127.519 61.1991 128.476 61.1496 130.117 61.7866C132.209 62.5982 132.429 62.6543 133.526 62.6567C134.43 62.6588 134.647 62.6238 135.379 62.3575C135.835 62.1916 136.603 61.9125 137.086 61.7374C138.675 61.1611 139.644 61.2243 141.681 62.0368C143.063 62.588 143.927 62.7644 144.835 62.68C145.856 62.5851 147.335 62.0502 147.249 61.8071C147.195 61.6529 147.069 61.676 146.205 61.9987C145.556 62.2413 145.347 62.2717 144.352 62.2686C143.231 62.265 143.23 62.2647 141.914 61.7467C139.422 60.766 138.566 60.7494 136.268 61.6379C134.67 62.2553 134.172 62.3625 133.188 62.3005C132.579 62.2623 132.164 62.1589 131.331 61.8388C129.328 61.0689 129.163 61.027 128.112 61.0237C127.071 61.0203 127.26 60.9711 124.601 61.9378C122.995 62.5215 121.948 62.4539 119.922 61.6357C117.768 60.7654 116.706 60.7654 114.552 61.6357C112.472 62.4759 111.385 62.5331 109.726 61.8898C107.678 61.0951 107.406 61.0252 106.362 61.0252C105.318 61.0252 105.046 61.0951 102.998 61.8898C101.337 62.534 100.252 62.4762 98.1619 61.6317C96.0207 60.7667 94.8752 60.778 92.6688 61.6859C90.8726 62.425 89.6869 62.5039 88.26 61.979C85.673 61.0275 85.6435 61.0197 84.6116 61.0234C83.5538 61.0271 83.3431 61.0811 81.393 61.8486C80.3477 62.26 80.2913 62.2709 79.1984 62.2707C78.1282 62.2705 78.0343 62.2535 77.1502 61.9005C74.9344 61.0158 73.8897 60.827 72.7066 61.0971ZM72.4003 62.8044C71.4265 63.083 70.9079 63.3069 70.9079 63.4489C70.9079 63.6707 71.0451 63.685 71.4487 63.5053C72.7781 62.9133 74.3634 62.8534 75.6384 63.3469C77.8635 64.2082 78.233 64.3083 79.1984 64.3112C80.1681 64.314 80.4737 64.2313 82.7585 63.3469C83.2519 63.1559 83.688 63.0687 84.3312 63.0325C85.4068 62.9719 85.8695 63.0706 87.4401 63.6954C89.6388 64.57 90.5598 64.5555 92.9021 63.6095L94.2676 63.0582L95.4868 63.0596L96.706 63.0611L98.0212 63.5809C100.691 64.6358 101.219 64.6169 104.509 63.3474C105.312 63.0374 106.583 62.9238 107.367 63.0919C107.647 63.152 108.435 63.417 109.118 63.681C110.743 64.3085 111.656 64.4557 112.656 64.2513C113.057 64.1695 113.977 63.8681 114.701 63.5817L116.018 63.0611L117.237 63.0588L118.456 63.0564L119.692 63.5639C120.372 63.843 121.293 64.1453 121.738 64.2357C122.806 64.4519 123.708 64.3222 125.186 63.7406C126.918 63.0592 127.287 62.9764 128.35 63.0323C129.046 63.0689 129.456 63.1487 129.965 63.3463C132.178 64.2048 132.56 64.3083 133.526 64.3112C134.495 64.314 134.801 64.2313 137.086 63.3469C137.579 63.1559 138.015 63.0687 138.658 63.0325C139.731 62.9721 140.187 63.0698 141.767 63.6994C143.344 64.3276 144.213 64.4585 145.319 64.2343C146.384 64.0185 147.219 63.6826 147.263 63.4518C147.304 63.2388 147.188 63.2594 146.108 63.6566C145.492 63.8827 145.221 63.9256 144.401 63.9266C143.359 63.928 143.552 63.9795 140.938 63.0064C139.394 62.4316 138.221 62.4933 136.305 63.2495C134.68 63.8911 134.524 63.9293 133.526 63.9293C132.527 63.9293 132.371 63.8911 130.746 63.2495C129.436 62.7326 128.672 62.5771 127.746 62.6396C127.067 62.6854 126.781 62.7694 124.532 63.5844C122.984 64.1453 121.989 64.0974 120.212 63.3764C117.754 62.3792 116.808 62.3671 114.454 63.3031C112.453 64.099 111.547 64.1583 109.973 63.5968C109.516 63.4337 108.758 63.1632 108.288 62.9958C106.719 62.4359 105.349 62.5247 103.58 63.3011C101.586 64.1764 100.442 64.1844 98.3734 63.3371C96.0102 62.3693 94.9776 62.3761 92.512 63.3764C91.3051 63.8661 90.5028 64.0285 89.6742 63.9511C89.0764 63.8953 88.5901 63.7451 86.6111 63.0049C85.0261 62.4121 83.8016 62.4971 81.7519 63.3418C79.6759 64.1974 78.6631 64.1823 76.4494 63.2627C74.8606 62.6027 73.6028 62.4604 72.4003 62.8044ZM72.4197 64.4203C71.556 64.6537 70.9582 64.9275 70.9227 65.1062C70.8826 65.3073 71.0427 65.2853 71.8934 64.9725C73.4514 64.3998 74.7265 64.5072 76.6625 65.3744C77.4618 65.7325 78.3873 65.9337 79.2346 65.9337C80.1749 65.9337 80.6272 65.8253 81.9676 65.279C84.1157 64.4037 85.1844 64.3996 87.2511 65.2588C89.4325 66.1657 90.6969 66.1705 92.8432 65.2802C94.976 64.3955 95.9124 64.3896 98.0715 65.2478C99.6454 65.8733 100.097 65.9683 101.229 65.9112C102.012 65.8715 102.322 65.8033 103.095 65.5014C105.031 64.7447 105.425 64.6409 106.362 64.6409C107.299 64.6409 107.693 64.7447 109.629 65.5014C110.402 65.8033 110.712 65.8715 111.495 65.9112C112.627 65.9684 113.08 65.8731 114.652 65.247C116.824 64.3824 117.765 64.3998 120.061 65.3467C121.105 65.7772 121.796 65.9337 122.65 65.9337C123.54 65.9337 124.269 65.7593 125.473 65.2588C127.508 64.4125 128.79 64.4138 130.727 65.2642C132.834 66.1891 134.161 66.1759 136.487 65.2073C138.403 64.409 139.563 64.4207 141.578 65.2588C142.782 65.7593 143.511 65.9337 144.401 65.9337C145.508 65.9337 147.278 65.4164 147.278 65.0927C147.278 64.9024 147.168 64.9198 146.168 65.2687C145.418 65.5303 145.141 65.5786 144.401 65.576C143.466 65.5728 143.092 65.4734 141.133 64.7079C140.361 64.406 140.05 64.3378 139.267 64.2981C138.134 64.2408 137.682 64.3367 136.11 64.9677C133.963 65.8297 133.079 65.8144 130.746 64.8747L129.38 64.3248L128.112 64.3264C126.873 64.3281 126.823 64.3366 125.918 64.6991C124.027 65.4558 123.591 65.5728 122.65 65.5762C121.724 65.5796 121.742 65.5845 119.285 64.6618C118.641 64.4197 118.25 64.3395 117.53 64.3012C116.429 64.2426 115.843 64.3692 114.261 65.0071C112.287 65.8032 111.301 65.7944 109.237 64.9621C107.884 64.4167 107.293 64.2756 106.362 64.2756C105.43 64.2756 104.849 64.4148 103.533 64.9531C102.997 65.1725 102.214 65.4219 101.794 65.5072C100.766 65.7155 99.8954 65.5848 98.463 65.0071C96.8865 64.3714 96.2949 64.2431 95.1943 64.2985C94.4027 64.3385 94.1112 64.4057 93.1947 64.7597C91.2484 65.5116 91.0182 65.5715 90.0736 65.5715C89.129 65.5715 88.8988 65.5116 86.9525 64.7597C86.0317 64.4041 85.7463 64.3386 84.9401 64.2979C83.8054 64.2408 83.3515 64.3369 81.7778 64.9673C79.68 65.8078 78.7576 65.8066 76.6137 64.9608C75.97 64.7069 75.2373 64.4488 74.9856 64.3874C74.3774 64.2389 73.0267 64.2562 72.4197 64.4203ZM72.933 65.9323C71.9274 66.1116 70.9079 66.5309 70.9079 66.7653C70.9079 66.9537 70.8955 66.9556 71.884 66.6163C73.5066 66.059 74.4698 66.1198 76.4187 66.9022C77.7633 67.442 78.3771 67.5924 79.2276 67.5903C80.0365 67.5884 80.8522 67.3851 81.9738 66.9059C83.7861 66.1317 84.9939 66.0561 86.524 66.6214C86.9742 66.7877 87.7157 67.0621 88.1717 67.2311C88.9159 67.507 89.1105 67.5384 90.0736 67.5384C91.2264 67.5384 91.1043 67.5702 93.6336 66.6086C94.3609 66.332 94.5824 66.2927 95.438 66.288C96.4982 66.2821 96.8289 66.3597 98.251 66.9486C99.3374 67.3984 100.14 67.589 100.949 67.5889C101.771 67.5888 102.4 67.4311 103.793 66.8752C105.855 66.0526 106.856 66.0507 108.916 66.8654C110.338 67.4278 110.985 67.5921 111.771 67.5903C112.585 67.5885 113.42 67.3906 114.488 66.9463C115.868 66.3727 116.234 66.2845 117.237 66.2845C118.24 66.2845 118.606 66.3727 119.986 66.9463C122.113 67.8303 123.16 67.8126 125.592 66.8517C127.634 66.0448 128.642 66.0545 130.746 66.9011C133.072 67.8372 133.967 67.8375 136.309 66.9028C138.278 66.1173 139.318 66.0543 140.866 66.6266C143.494 67.5981 143.256 67.5358 144.352 67.5395C145.221 67.5426 145.505 67.5008 146.226 67.2644C146.694 67.1111 147.126 66.9265 147.186 66.8541C147.433 66.5555 147.132 66.5611 146.231 66.8715C145.425 67.1495 145.144 67.1999 144.401 67.1999C143.638 67.1999 143.395 67.1539 142.548 66.8482C139.794 65.8551 139.974 65.9029 138.988 65.9031C137.978 65.9033 137.645 65.9832 136.11 66.5914C134.855 67.0892 134.377 67.2017 133.521 67.2017C132.694 67.2017 131.97 67.0282 130.88 66.5682C128.733 65.663 127.648 65.647 125.53 66.4888C124.023 67.0878 123.571 67.1991 122.644 67.2005C121.77 67.2018 121.229 67.0672 119.919 66.5237C118.766 66.045 118.126 65.8948 117.237 65.8948C116.349 65.8948 115.708 66.045 114.555 66.5237C113.246 67.0672 112.704 67.2018 111.831 67.2005C110.903 67.1991 110.452 67.0878 108.945 66.4888C106.827 65.6471 105.862 65.658 103.631 66.5487C102.31 67.0761 101.807 67.1991 100.963 67.2005C100.108 67.2019 99.4651 67.0466 98.2123 66.5367C96.9464 66.0214 96.3645 65.89 95.3893 65.8992C94.5233 65.9073 94.5751 65.8931 91.9268 66.8482C91.0792 67.1539 90.8364 67.1999 90.0736 67.1999C89.3108 67.1999 89.068 67.1539 88.2204 66.8482C85.5721 65.8931 85.6238 65.9073 84.7579 65.8992C83.7827 65.89 83.2008 66.0214 81.9349 66.5367C79.7917 67.409 78.5934 67.4294 76.6969 66.6256C75.1536 65.9716 73.9534 65.7504 72.933 65.9323Z" fill="black"/>
<path fill-rule="evenodd" clip-rule="evenodd" d="M40.0002 24.0318L36.5493 27.4837L39.9998 30.908C41.8977 32.7913 43.473 34.3323 43.5006 34.3323C43.5282 34.3323 45.0978 32.7848 46.9887 30.8933L50.4266 27.4543L46.9856 24.0171C45.093 22.1266 43.5236 20.5798 43.4979 20.5798C43.4979 20.5798 41.8982 22.1332 40.0002 24.0318ZM42.0858 26.1402L40.722 27.5067L41.8432 28.6296C42.46 29.2472 43.0895 29.8454 43.2424 29.9589L43.5202 30.1653L44.8761 28.8119L46.2319 27.4586L44.8922 26.1162C44.1552 25.3779 43.5292 24.7738 43.5009 24.7738C43.4727 24.7738 42.8359 25.3887 42.0858 26.1402Z" fill="#6C2812"/>
<path fill-rule="evenodd" clip-rule="evenodd" d="M49.0123 33.0638L45.6003 36.4768L46.6221 37.5022L47.644 38.5276L51.0827 35.09L54.5213 31.6523L53.5239 30.6514C52.9754 30.1011 52.5035 29.6506 52.4755 29.6506C52.4474 29.6506 50.889 31.1865 49.0123 33.0638ZM33.1855 30.944L32.1881 31.9449L36.1626 35.9183L40.1369 39.8918H42.1844H44.2318L39.2582 34.9175C36.5228 32.1817 34.2618 29.9432 34.2338 29.9432C34.2058 29.9432 33.7341 30.3936 33.1855 30.944ZM53.5959 36.8682L50.5735 39.8918H52.622H54.6705L56.694 37.8667L58.7174 35.8415L57.7156 34.8431C57.1645 34.294 56.6923 33.8447 56.666 33.8447C56.6398 33.8447 55.2582 35.2053 53.5959 36.8682ZM28.9681 35.1616L27.9462 36.187L29.8007 38.0414L31.6552 39.8959L33.6775 39.8695L35.6997 39.8431L32.8449 36.9896L29.99 34.1361L28.9681 35.1616ZM60.0791 38.7564C59.6784 39.1511 59.2669 39.5681 59.1647 39.683L58.9789 39.8918H60.8696H62.7603L61.8376 38.9652C61.3302 38.4556 60.8908 38.0387 60.8613 38.0387C60.8318 38.0387 60.4798 38.3616 60.0791 38.7564ZM24.9693 39.1603L24.2427 39.8918H25.7496H27.2565L26.5299 39.1603C26.1303 38.758 25.7792 38.4288 25.7496 38.4288C25.72 38.4288 25.3689 38.758 24.9693 39.1603Z" fill="#718E3B"/>
<path d="M41.5015 14.3336L43.48 12.3871L45.4864 14.3484L43.5009 16.3339L42.5012 15.3338L41.5015 14.3336Z" fill="#FDB609"/>
<path d="M90.6104 38.481L91.6573 37.4309C92.233 36.8533 92.716 36.3807 92.7307 36.3807C92.7453 36.3807 93.2234 36.8463 93.7931 37.4154L94.8289 38.4499L93.7698 39.5124L92.7107 40.5748L91.6605 39.5279L90.6104 38.481Z" fill="#F5851F"/>
<path d="M45.4062 18.3389L47.4021 16.3857L49.3772 18.3597L47.4021 20.3347L45.4062 18.3389Z" fill="#FDB609"/>
<path d="M39.2979 20.3825L37.356 18.4711L39.2979 16.4324L41.2634 18.4711L39.2979 20.3825Z" fill="#FDB609"/>
</svg>
