<svg width="185" height="99" viewBox="0 0 185 99" fill="none" xmlns="http://www.w3.org/2000/svg">
<path fill-rule="evenodd" clip-rule="evenodd" d="M47.7469 28.6862L43.6276 32.8066L47.7464 36.8942C50.0118 39.1423 51.8922 40.9817 51.9251 40.9817C51.9581 40.9817 53.8317 39.1345 56.0889 36.8766L60.1926 32.7716L56.0851 28.6686C53.826 26.4121 51.9526 24.5657 51.922 24.5657C51.922 24.5657 50.0125 26.4199 47.7469 28.6862ZM50.2364 31.203L48.6084 32.8341L49.9468 34.1745C50.683 34.9117 51.4345 35.6257 51.617 35.7613L51.9485 36.0076L53.5671 34.3921L55.1855 32.7767L53.5863 31.1743C52.7066 30.293 51.9594 29.572 51.9256 29.572C51.8918 29.572 51.1317 30.3059 50.2364 31.203ZM58.5043 39.4674L54.4314 43.5415L55.6512 44.7655L56.871 45.9895L60.9757 41.8861L65.0803 37.7825L63.8897 36.5879C63.2349 35.9309 62.6717 35.3932 62.6383 35.3932C62.6047 35.3932 60.7445 37.2266 58.5043 39.4674ZM39.6122 36.9372L38.4216 38.1318L43.1659 42.8749L47.91 47.6179H50.354H52.798L46.8611 41.6802C43.5958 38.4145 40.897 35.7425 40.8636 35.7425C40.8301 35.7425 40.2671 36.2801 39.6122 36.9372ZM63.9756 44.0087L60.3678 47.6179H62.8131H65.2584L67.6738 45.2006L70.089 42.7831L68.8932 41.5914C68.2354 40.9359 67.6717 40.3995 67.6404 40.3995C67.609 40.3995 65.9599 42.0237 63.9756 44.0087ZM34.578 41.9715L33.3582 43.1955L35.5719 45.4091L37.7855 47.6228L40.1995 47.5912L42.6133 47.5597L39.2057 44.1536L35.7979 40.7474L34.578 41.9715ZM150.422 46.8915V50.5285H148.5C147.444 50.5285 146.579 50.5686 146.579 50.6174C146.579 50.6663 147.309 51.4348 148.201 52.3251L149.823 53.944L149.866 58.6688C149.906 63.1753 149.92 63.4294 150.166 64.1687C150.525 65.2466 151.069 65.9947 151.827 66.453C152.797 67.0389 153.205 67.1193 155.195 67.1175C156.949 67.1159 157.656 67.0135 158.717 66.6072L159.037 66.4846V64.805V63.1253L158.489 63.2901C156.77 63.8076 155.519 63.7617 154.859 63.1566L154.438 62.7714L154.405 58.3381L154.372 53.9049H156.79H159.209L157.523 52.2167L155.838 50.5285H155.109H154.38V48.8682V47.2079L152.401 45.2312L150.422 43.2545V46.8915ZM21.9604 44.5765L20.8147 45.7263L20.8565 49.2822L20.8982 52.8381L20.1802 52.1487C19.3916 51.3913 18.3754 50.8463 17.358 50.6351C16.3555 50.427 14.296 50.5549 13.447 50.8779C11.4909 51.6222 10.1618 53.2473 9.51647 55.6834C9.29701 56.5121 9.26371 56.9382 9.26907 58.853C9.27443 60.741 9.31215 61.2015 9.5266 61.9964C10.4585 65.45 12.7674 67.1943 16.183 67.0249C18.0907 66.9303 19.3774 66.3669 20.4276 65.1664L20.9393 64.5813L21.0042 64.9771C21.0399 65.1947 21.1223 65.6836 21.1874 66.0637C21.2525 66.4435 21.3057 66.7731 21.3057 66.796C21.3057 66.8188 21.738 66.8223 22.2662 66.8036L23.2267 66.7699L23.2564 55.0982C23.2727 48.6788 23.2456 43.4266 23.196 43.4266C23.1465 43.4266 22.5905 43.9441 21.9604 44.5765ZM71.7144 46.2626C71.2362 46.7338 70.745 47.2315 70.6229 47.3686L70.4012 47.6179H72.6581H74.915L73.8136 46.5119C73.2078 45.9035 72.6833 45.4058 72.6482 45.4058C72.613 45.4058 72.1928 45.7913 71.7144 46.2626ZM29.8048 46.7447L28.9374 47.6179H30.7362H32.5349L31.6676 46.7447C31.1906 46.2645 30.7715 45.8715 30.7362 45.8715C30.7009 45.8715 30.2818 46.2645 29.8048 46.7447ZM120.675 50.3597C119.439 50.6267 118.297 51.2319 117.61 51.9836C116.856 52.8085 116.606 53.5232 116.611 54.8363C116.62 57.256 117.583 58.338 121.108 59.8889C123.17 60.7962 123.477 60.9534 124.018 61.3787C124.547 61.7946 124.696 62.3571 124.426 62.9225C123.878 64.0728 121.062 64.0738 117.848 62.9251C117.226 62.7025 116.703 62.5204 116.687 62.5204C116.671 62.5204 116.658 63.3317 116.658 64.3234V66.1264L117.095 66.3104C117.335 66.4115 117.977 66.6068 118.521 66.7442C119.376 66.9601 119.835 66.9937 121.897 66.991C124.111 66.9882 124.353 66.9668 125.234 66.6956C127.042 66.1396 128.108 65.2484 128.662 63.8304C128.872 63.2928 128.925 62.9196 128.93 61.9382C128.935 60.8398 128.903 60.6449 128.612 60.0172C128.016 58.7285 126.933 57.8881 124.633 56.93C121.645 55.6844 121.082 55.3133 121.082 54.5869C121.082 53.7521 121.588 53.492 123.178 53.5096C124.019 53.519 124.497 53.5918 125.175 53.814L126.066 54.1058L127.445 52.7912L128.825 51.4764L128.126 51.1643C126.72 50.5361 125.385 50.2739 123.353 50.2268C121.988 50.1952 121.272 50.2307 120.675 50.3597ZM136.619 50.3494C135.494 50.5538 134.556 50.8368 133.663 51.2421L132.908 51.5841L134.199 52.8751L135.491 54.1661L136.233 53.925C139.528 52.854 141.446 53.5568 141.454 55.8379L141.457 56.5485L140.566 56.6238C140.076 56.6652 139.302 56.6991 138.846 56.6991C136.393 56.6991 134.038 57.3526 132.782 58.3819C131.705 59.2642 131.166 61.0506 131.424 62.8784C131.59 64.0459 131.959 64.8879 132.623 65.6077C133.527 66.5886 134.827 67.0627 136.602 67.059C138.582 67.0548 139.845 66.5772 141.09 65.3625C141.511 64.9519 141.884 64.6169 141.918 64.6181C141.952 64.6193 142.165 65.1038 142.39 65.695L142.799 66.7699L144.34 66.8024L145.881 66.8349V60.8018C145.881 54.2431 145.862 54.02 145.217 52.8339C144.567 51.6409 143.169 50.7063 141.505 50.3538C140.51 50.1431 137.769 50.1405 136.619 50.3494ZM165.919 50.4183C164.825 50.655 163.217 51.2144 162.841 51.4888C162.663 51.619 162.778 51.7702 163.912 52.9L165.181 54.1656L165.922 53.9247C167.932 53.2715 169.702 53.2989 170.487 53.9952C170.882 54.3462 171.14 55.0782 171.143 55.855C171.144 56.2553 171.106 56.5836 171.058 56.5848C167.107 56.6794 164.961 56.9987 163.511 57.7078C161.633 58.6262 160.76 60.5056 161.107 62.8848C161.508 65.6378 163.281 67.0653 166.29 67.059C168.269 67.0548 169.534 66.5771 170.776 65.3651C171.195 64.956 171.568 64.6485 171.604 64.6819C171.64 64.7153 171.853 65.1987 172.077 65.7563L172.485 66.7699L174.027 66.8024L175.569 66.8349V60.8018C175.569 55.8232 175.539 54.652 175.395 54.1005C174.922 52.2848 173.776 51.1373 171.801 50.502C170.689 50.1447 167.4 50.0979 165.919 50.4183ZM80.8836 50.4969C80.8567 50.5464 81.8453 54.1232 83.0803 58.4455C84.3154 62.7678 85.3565 66.4232 85.3938 66.5685L85.4617 66.8328L87.8631 66.8013L90.2644 66.7699L90.4786 65.8385C90.7992 64.4451 91.0891 63.1934 91.7329 60.4247C92.0529 59.048 92.5023 57.0833 92.7315 56.0587C93.1765 54.0699 93.2367 53.8457 93.3072 53.9173C93.3635 53.9747 95.066 61.2626 95.6976 64.1503C95.9567 65.3349 96.1956 66.4221 96.2284 66.5661C96.288 66.8273 96.295 66.8281 98.6751 66.8281C101.04 66.8281 101.063 66.8257 101.174 66.5661C101.235 66.4221 101.623 65.1254 102.036 63.6846C103.686 57.9282 105.729 50.808 105.787 50.6133C105.844 50.4202 105.708 50.409 103.661 50.4387L101.475 50.4703L101.321 50.9942C100.063 55.2849 98.6122 61.5647 98.6122 62.7199C98.6122 63.3263 98.4971 62.8871 98.3162 61.5908C98.0823 59.9134 97.7143 58.1282 97.0558 55.4766C96.7695 54.324 96.4233 52.9094 96.2862 52.3331C96.1493 51.7568 95.9856 51.0878 95.9225 50.8464L95.8077 50.4075L93.3515 50.4389L90.8953 50.4703L89.9177 54.2542C88.9895 57.8468 88.5624 59.8263 88.2344 62.0547L88.0887 63.0443L87.8757 61.6472C87.5245 59.3442 87.1237 57.5197 86.1744 53.9049L85.2724 50.4703L83.1024 50.4387C81.9089 50.4213 80.9104 50.4475 80.8836 50.4969ZM108.445 50.5576C108.415 50.6377 108.403 54.3182 108.42 58.7365L108.45 66.7699L110.691 66.8016L112.933 66.8331V58.6227V50.4121H110.717C109.051 50.4121 108.487 50.4483 108.445 50.5576ZM33.6468 50.6492C31.9536 50.9984 30.219 52.4131 29.3695 54.1377C28.7864 55.3212 28.5782 56.0803 28.4051 57.6541C27.9201 62.0621 29.7719 65.5196 33.2393 66.6791C34.1056 66.9687 34.3131 66.9907 36.2082 66.9934C38.3369 66.9963 39.3009 66.8336 40.7197 66.2314L41.2145 66.0214V64.9695C41.2145 64.3909 41.1752 63.9175 41.1271 63.9176C41.0791 63.9176 40.7563 64.0253 40.41 64.157C39.0466 64.6752 37.8488 64.8868 36.2664 64.8892C34.9611 64.8911 34.6567 64.8545 34.0543 64.6227C32.168 63.8966 31.2085 62.4669 30.9058 59.9311L30.8261 59.2628L36.3404 59.2325L41.8548 59.2022L41.8422 57.6887C41.8185 54.839 40.9662 52.8995 39.1847 51.6408C38.0342 50.8278 37.3221 50.6146 35.626 50.575C34.8256 50.5562 33.935 50.5897 33.6468 50.6492ZM50.7031 50.5968C49.6413 50.8512 49.3254 50.9613 48.6306 51.3195C46.8334 52.2464 46.1018 54.032 46.7128 56.0005C47.1309 57.3475 48.3522 58.226 51.4993 59.4434C54.7303 60.6933 55.7527 61.6133 55.4867 63.0312C55.0904 65.1435 51.2707 65.7215 47.5583 64.2308L46.57 63.834V64.9674V66.1009L47.1442 66.348C48.3367 66.8609 49.1887 66.9907 51.4017 66.9969C53.1174 67.0017 53.6228 66.964 54.1898 66.7891C55.8714 66.2702 56.9423 65.4546 57.502 64.2667C57.7647 63.7094 57.8036 63.4754 57.8017 62.4621C57.7997 61.4318 57.7641 61.2302 57.4917 60.7092C56.8397 59.4629 55.7817 58.7611 52.7988 57.5965C50.537 56.7134 49.9351 56.4092 49.4328 55.8947C48.3533 54.7892 48.7999 53.2538 50.3334 52.7984C51.6784 52.399 53.3796 52.4619 55.0699 52.9737L55.8242 53.2021L56.6109 52.4215C57.0435 51.9921 57.3976 51.6065 57.3976 51.5646C57.3976 51.4636 56.2283 51.0301 55.3571 50.8083C54.6778 50.6353 51.2018 50.4773 50.7031 50.5968ZM67.8759 50.6074C66.4845 50.8324 64.2513 51.5515 64.0793 51.8298C64.0379 51.8969 64.3226 52.2703 64.7119 52.6596L65.4198 53.3675L66.3859 53.058C67.6792 52.6436 68.8175 52.4633 69.6098 52.5472C71.6998 52.7687 72.5329 53.7873 72.5329 56.121V57.1307L71.6421 57.2059C71.1522 57.2473 70.3337 57.2812 69.8233 57.2812C68.5912 57.2812 66.6628 57.5758 65.6487 57.9189C63.0342 58.8034 61.8625 60.5721 62.1848 63.1477C62.3783 64.6941 63.1316 65.8161 64.4082 66.4591C65.2848 66.9007 66.0709 67.0616 67.3387 67.059C69.3541 67.0547 70.5802 66.5723 71.8645 65.2787C72.3531 64.7865 72.6712 64.5438 72.7036 64.6384C72.7322 64.7221 72.8389 65.2054 72.9404 65.7122C73.0419 66.219 73.1521 66.6773 73.1851 66.7309C73.2182 66.7843 73.6379 66.8281 74.1179 66.8281H74.9906L74.9481 60.512C74.9018 53.6508 74.909 53.7293 74.2232 52.559C73.6935 51.6553 72.6299 50.985 71.2675 50.6962C70.56 50.5462 68.575 50.4942 67.8759 50.6074ZM15.0105 52.6594C12.8179 53.282 11.7588 55.2993 11.7588 58.853C11.7588 62.6216 12.9187 64.5647 15.4054 64.9619C16.5205 65.14 18.0522 64.8914 18.8608 64.4009C19.6953 63.8946 20.3026 62.9644 20.6202 61.7054C20.8351 60.8535 20.8348 57.1428 20.6196 56.1752C20.2398 54.4676 19.3937 53.3495 18.1204 52.8732C17.279 52.5584 15.7388 52.4525 15.0105 52.6594ZM34.1219 52.6852C33.3142 52.912 32.8632 53.1946 32.2534 53.8561C31.5756 54.5914 30.9744 56.0465 30.9704 56.961L30.969 57.2812H35.1021H39.2352V56.763C39.2352 55.5549 38.7561 54.2587 38.0478 53.5504C37.1781 52.6807 35.475 52.3054 34.1219 52.6852ZM69.9133 59.0341C66.1527 59.2528 64.7258 60.1753 64.7188 62.393C64.7159 63.3126 64.9689 63.9368 65.5393 64.4167C66.0886 64.8789 66.6594 65.0246 67.8759 65.0129C69.64 64.996 70.8931 64.4087 71.7033 63.2189C72.2781 62.3748 72.441 61.7765 72.504 60.2792L72.5617 58.9112L71.9942 58.9286C71.6822 58.9383 70.7458 58.9858 69.9133 59.0341ZM138.629 59.3874C137.903 59.4937 137.003 59.8469 136.642 60.1672C135.979 60.7559 135.768 62.2809 136.251 62.9979C136.597 63.5117 137.042 63.7198 137.92 63.7786C139.368 63.8754 140.628 63.1893 141.18 62.003C141.406 61.5192 141.455 61.2224 141.456 60.3374L141.457 59.2604L140.38 59.2747C139.787 59.2825 139 59.3332 138.629 59.3874ZM168.309 59.3885C167.351 59.5285 166.472 59.9603 166.068 60.4887C165.76 60.8933 165.731 61.0107 165.731 61.892C165.731 62.7866 165.754 62.8776 166.057 63.1942C166.898 64.0723 168.961 63.9903 170.077 63.0344C170.856 62.3676 171.066 61.85 171.123 60.4538L171.172 59.2604L170.081 59.2747C169.482 59.2825 168.684 59.3337 168.309 59.3885ZM69.9715 72.3517V73.6838L69.4767 73.7197L68.9819 73.7554V74.5122V75.2689L69.4767 75.3047L69.9715 75.3405V78.2444V81.1484H70.8447H71.7179V78.2378V75.3272H72.3001H72.8822V74.5122V73.6972H72.3001H71.7179V72.3583V71.0194H70.8447H69.9715V72.3517ZM10.0124 72.009V72.8822H10.8856H11.7588V77.0153V81.1484H12.6887H13.6186L13.6492 77.0444L13.6798 72.9404L14.5821 72.9064L15.4844 72.8724V72.0041V71.1358H12.7484H10.0124V72.009ZM86.7881 72.9302C85.6774 73.184 84.7087 73.607 84.6601 73.8594C84.6111 74.1139 84.6195 74.1123 85.9218 73.6258C86.6853 73.3407 86.9559 73.3 88.0757 73.3015C89.2403 73.303 89.446 73.3376 90.346 73.6836C93.2678 74.807 93.2297 74.7968 94.5373 74.7957C95.6112 74.7947 95.88 74.7508 96.7494 74.4346C97.2937 74.2366 98.2105 73.9035 98.7868 73.6945C100.625 73.0276 101.861 73.0888 104.021 73.9536C105.918 74.7127 106.252 74.793 107.519 74.793C108.785 74.793 109.12 74.7127 111.016 73.9536C113.641 72.9031 114.347 72.9478 118.172 74.4062C119.062 74.746 119.289 74.7845 120.442 74.7914C121.603 74.7984 121.815 74.7647 122.712 74.4316C123.257 74.2295 124.147 73.8987 124.691 73.6966C125.852 73.2656 127.044 73.1372 128.049 73.3349C128.429 73.4096 129.388 73.7279 130.179 74.0422C132.909 75.1257 134.133 75.1197 136.816 74.009C139.293 72.9835 140.588 72.9811 143.043 73.9976C144.426 74.5702 144.985 74.7312 145.892 74.818C146.968 74.9211 147.998 74.7111 149.697 74.043C152.216 73.0519 153.359 72.9928 155.318 73.7532C157.815 74.722 158.077 74.7889 159.386 74.7918C160.466 74.7943 160.724 74.7525 161.598 74.4346C162.143 74.2366 163.059 73.9035 163.636 73.6945C165.532 73.0066 166.69 73.082 169.121 74.0518C170.77 74.7098 171.803 74.9204 172.886 74.8197C174.105 74.7064 175.871 74.0679 175.768 73.7776C175.703 73.5936 175.553 73.6212 174.522 74.0064C173.747 74.296 173.497 74.3323 172.309 74.3286C170.971 74.3243 170.97 74.3239 169.399 73.7056C166.424 72.5349 165.403 72.5151 162.66 73.5757C160.753 74.3126 160.158 74.4406 158.983 74.3666C158.257 74.321 157.761 74.1976 156.767 73.8155C154.376 72.8965 154.179 72.8465 152.925 72.8425C151.681 72.8384 151.907 72.7798 148.733 73.9337C146.817 74.6305 145.566 74.5498 143.148 73.5731C140.577 72.5342 139.31 72.5342 136.738 73.5731C134.255 74.576 132.957 74.6443 130.978 73.8764C128.533 72.9277 128.208 72.8443 126.962 72.8443C125.716 72.8443 125.391 72.9277 122.946 73.8764C120.964 74.6454 119.669 74.5763 117.174 73.5683C114.618 72.5357 113.25 72.5492 110.617 73.6329C108.472 74.5152 107.057 74.6094 105.354 73.9829C102.266 72.8471 102.231 72.8377 100.999 72.8422C99.7362 72.8466 99.4847 72.9111 97.1569 73.8272C95.9092 74.3183 95.8419 74.3312 94.5373 74.331C93.2598 74.3308 93.1478 74.3105 92.0924 73.8892C89.4474 72.8331 88.2004 72.6077 86.7881 72.9302ZM19.0936 73.6896C18.2277 73.954 17.3524 74.6469 16.8418 75.472C16.7332 75.6477 16.5616 76.1141 16.4606 76.5083C16.0013 78.3014 16.8378 80.1289 18.4903 80.9425C20.2282 81.7981 22.3119 81.2388 23.3875 79.628C25.1333 77.0136 23.2858 73.5509 20.1661 73.5908C19.7364 73.5963 19.2537 73.6407 19.0936 73.6896ZM36.078 73.7416C35.0721 74.101 34.3121 74.7874 33.807 75.7929C33.5328 76.3384 33.4846 76.5797 33.4808 77.4228C33.4769 78.2532 33.5255 78.5183 33.7824 79.07C34.1727 79.9079 34.8884 80.6232 35.7252 81.0119C36.646 81.4396 37.9607 81.4405 38.886 81.0142C39.9438 80.5268 40.7051 79.6131 41.0453 78.4226C41.5689 76.5903 40.5009 74.4932 38.7013 73.8199C37.9632 73.5438 36.7343 73.507 36.078 73.7416ZM45.7602 73.7644C45.539 73.8604 45.1853 74.0706 44.9743 74.2315L44.5908 74.5241V74.1106V73.6972H43.6594H42.728V77.4228V81.1484H43.6508H44.5737L44.6113 78.7908C44.6433 76.7884 44.6806 76.3755 44.8585 76.0497C45.2621 75.3103 46.2989 74.9755 46.894 75.3925C47.4772 75.8009 47.5496 76.1449 47.5971 78.7326L47.6414 81.1484H48.4942H49.3471L49.3847 78.7908C49.4205 76.5536 49.4364 76.4107 49.6957 75.9938C50.0191 75.4735 50.4751 75.2107 51.0543 75.2107C52.1687 75.2107 52.3106 75.5843 52.3699 78.6744L52.4173 81.1484H53.2861H54.155L54.1173 78.1505C54.0767 74.9287 54.0518 74.788 53.4195 74.1976C52.4262 73.2701 50.2571 73.4371 49.4701 74.5016C49.3237 74.6995 49.1746 74.8608 49.1386 74.8601C49.1026 74.8592 48.9591 74.6824 48.8196 74.467C48.3079 73.6767 46.7744 73.3245 45.7602 73.7644ZM57.6887 73.8547C57.0037 74.1743 56.304 74.9083 55.9654 75.6622C55.5961 76.4845 55.5528 78.0937 55.8768 78.9535C56.6895 81.1098 59.1829 82.0227 60.8872 80.7881C61.1439 80.602 61.3807 80.4499 61.4132 80.4499C61.4458 80.4499 61.4725 80.607 61.4725 80.7992V81.1484H62.3457H63.2189V77.4228V73.6972H62.3457H61.4725V74.1185V74.5398L61.0464 74.2148C60.4513 73.761 59.9069 73.5916 59.0276 73.5871C58.4724 73.5842 58.1157 73.6554 57.6887 73.8547ZM67.0866 73.8292C66.8766 73.9636 66.6299 74.2116 66.5383 74.3803C66.3718 74.6866 66.3717 74.6865 66.367 74.1867L66.3624 73.6866L65.5765 73.7209L64.7906 73.7554L64.7599 77.4519L64.7291 81.1484H65.6622H66.5952L66.5959 78.849C66.5966 76.3756 66.6839 75.81 67.1352 75.3587C67.3648 75.1291 67.4984 75.085 67.795 75.1405C68.161 75.2091 68.171 75.1989 68.4265 74.4968C68.5692 74.1046 68.6578 73.7379 68.6233 73.6822C68.4989 73.4808 67.4782 73.5784 67.0866 73.8292ZM76.11 73.7518C74.9896 74.1804 73.9692 75.3046 73.6884 76.4197C73.5045 77.1499 73.6055 78.4045 73.9022 79.0751C74.2397 79.8382 75.0054 80.6227 75.7762 80.995C76.3224 81.2589 76.5901 81.3125 77.3646 81.3134C78.1437 81.3142 78.4159 81.2597 79.0294 80.9801C81.9085 79.6676 82.0524 75.5328 79.2707 74.0472C78.6206 73.6999 78.4065 73.6468 77.5392 73.6173C76.8826 73.595 76.4016 73.6403 76.11 73.7518ZM24.9149 73.7887C24.9149 73.8444 25.0422 74.2002 25.1978 74.5795C25.3534 74.9587 25.9752 76.4799 26.5796 77.96L27.6785 80.6511L26.943 82.2433L26.2075 83.8354L27.1383 83.8018L28.0691 83.768L30.33 78.8199C31.5734 76.0985 32.5926 73.8304 32.5949 73.7796C32.5971 73.7289 32.1929 73.7027 31.6967 73.7214L30.7944 73.7554L29.7535 76.0548C29.1811 77.3194 28.6834 78.3535 28.6475 78.3526C28.6116 78.3517 28.1584 77.3169 27.6402 76.0532L26.6981 73.7554L25.8065 73.7214C25.3161 73.7027 24.9149 73.7329 24.9149 73.7887ZM86.4226 74.9681C85.2602 75.3006 84.6411 75.5679 84.6411 75.7374C84.6411 76.0022 84.8048 76.0193 85.2866 75.8047C86.8735 75.0981 88.7659 75.0265 90.2878 75.6157C92.9438 76.6438 93.3849 76.7633 94.5373 76.7668C95.6948 76.7701 96.0596 76.6714 98.7868 75.6157C99.3758 75.3877 99.8964 75.2836 100.664 75.2404C101.948 75.168 102.5 75.2858 104.375 76.0316C107 77.0756 108.099 77.0584 110.895 75.9292L112.525 75.271L113.98 75.2728L115.436 75.2745L117.006 75.895C120.192 77.1542 120.822 77.1316 124.75 75.6162C125.709 75.2462 127.225 75.1106 128.161 75.3113C128.495 75.383 129.436 75.6994 130.252 76.0145C132.191 76.7635 133.281 76.9392 134.474 76.6953C134.953 76.5976 136.052 76.2378 136.916 75.896L138.488 75.2745L139.943 75.2717L141.399 75.2689L142.874 75.8747C143.685 76.2079 144.784 76.5687 145.316 76.6766C146.59 76.9348 147.668 76.7799 149.432 76.0857C151.499 75.2722 151.94 75.1735 153.208 75.2402C154.039 75.2838 154.529 75.3791 155.137 75.615C157.778 76.6397 158.234 76.7633 159.386 76.7668C160.544 76.7701 160.909 76.6714 163.636 75.6157C164.225 75.3877 164.745 75.2836 165.513 75.2404C166.794 75.1682 167.338 75.2849 169.224 76.0364C171.107 76.7863 172.144 76.9426 173.464 76.6749C174.735 76.4174 175.731 76.0164 175.784 75.7409C175.833 75.4867 175.695 75.5112 174.405 75.9853C173.67 76.2553 173.347 76.3064 172.368 76.3077C171.124 76.3093 171.355 76.3708 168.235 75.2092C166.392 74.5231 164.991 74.5967 162.704 75.4995C160.765 76.2653 160.578 76.3108 159.386 76.3108C158.194 76.3108 158.008 76.2653 156.068 75.4995C154.505 74.8824 153.592 74.6968 152.487 74.7713C151.677 74.8261 151.336 74.9263 148.651 75.8992C146.803 76.5687 145.616 76.5116 143.494 75.6509C140.56 74.4606 139.431 74.4462 136.621 75.5634C134.232 76.5134 133.151 76.5842 131.272 75.9139C130.726 75.7193 129.822 75.3964 129.261 75.1965C127.388 74.5282 125.753 74.6342 123.641 75.5611C121.261 76.6059 119.895 76.6154 117.426 75.604C114.605 74.4487 113.372 74.4569 110.429 75.6509C108.989 76.2354 108.031 76.4294 107.042 76.3369C106.328 76.2703 105.748 76.091 103.386 75.2075C101.494 74.4998 100.032 74.6012 97.5853 75.6096C95.1072 76.6309 93.8984 76.6128 91.2559 75.5152C89.3594 74.7273 87.858 74.5575 86.4226 74.9681ZM19.4429 75.3343C19.066 75.4931 18.5349 75.9994 18.3265 76.3983C18.0643 76.9002 18.1175 78.0947 18.426 78.6343C18.8107 79.3069 19.2111 79.5535 20.0132 79.6115C20.8432 79.6716 21.4391 79.393 21.8898 78.7345C22.135 78.3763 22.1789 78.1783 22.1789 77.4308C22.1789 76.4602 21.9831 76.0424 21.3002 75.5562C20.9 75.271 19.8814 75.1494 19.4429 75.3343ZM36.4992 75.3686C36.0614 75.573 35.5626 76.0994 35.4006 76.5281C35.1836 77.1022 35.252 78.1295 35.5406 78.6343C35.9253 79.3069 36.3256 79.5535 37.1277 79.6115C37.9577 79.6716 38.5537 79.393 39.0044 78.7345C39.2501 78.3754 39.2934 78.1789 39.2934 77.4218C39.2934 76.6246 39.2591 76.4863 38.9655 76.1015C38.7851 75.865 38.5142 75.5907 38.3633 75.4919C37.9747 75.2373 36.9287 75.1681 36.4992 75.3686ZM58.5036 75.4274C56.8406 76.4546 57.134 79.121 58.9665 79.6341C60.2519 79.994 61.5852 78.8619 61.5882 77.4084C61.5893 76.9614 61.2706 76.1327 60.9737 75.8103C60.4144 75.2027 59.1776 75.0109 58.5036 75.4274ZM76.5381 75.4325C75.0419 76.1121 74.9413 78.4102 76.3659 79.3701C76.8356 79.6867 77.8291 79.7318 78.3539 79.4604C78.7974 79.231 79.2274 78.6492 79.4099 78.0311C79.5876 77.4299 79.4245 76.5478 79.0343 76C78.7358 75.5806 77.986 75.2159 77.4228 75.2159C77.1987 75.2159 76.8005 75.3134 76.5381 75.4325ZM86.4457 76.8969C85.4147 77.1755 84.7011 77.5024 84.6587 77.7157C84.6109 77.9558 84.802 77.9295 85.8175 77.5561C87.6773 76.8725 89.1993 77.0007 91.5102 78.0359C92.4644 78.4633 93.5691 78.7035 94.5805 78.7035C95.703 78.7035 96.2428 78.5741 97.8429 77.922C100.407 76.8771 101.683 76.8722 104.15 77.8978C106.753 78.9805 108.263 78.9862 110.825 77.9234C113.371 76.8674 114.488 76.8604 117.066 77.8848C118.944 78.6314 119.484 78.7448 120.834 78.6766C121.769 78.6292 122.139 78.5478 123.062 78.1875C125.373 77.2841 125.843 77.1603 126.962 77.1603C128.08 77.1603 128.55 77.2841 130.862 78.1875C131.784 78.5478 132.155 78.6292 133.089 78.6766C134.44 78.7449 134.981 78.6312 136.858 77.8837C139.45 76.8517 140.573 76.8725 143.315 78.0029C144.561 78.5166 145.385 78.7035 146.405 78.7035C147.466 78.7035 148.337 78.4953 149.774 77.8978C152.204 76.8877 153.733 76.8892 156.046 77.9043C158.561 79.0083 160.145 78.9926 162.921 77.8364C165.209 76.8835 166.593 76.8975 168.999 77.8978C170.436 78.4953 171.306 78.7035 172.368 78.7035C173.69 78.7035 175.802 78.086 175.802 77.6996C175.802 77.4724 175.671 77.4933 174.477 77.9097C173.582 78.222 173.251 78.2796 172.368 78.2766C171.252 78.2727 170.806 78.1541 168.467 77.2403C167.545 76.8799 167.175 76.7985 166.24 76.7512C164.887 76.6827 164.347 76.7971 162.472 77.5504C159.909 78.5794 158.853 78.5611 156.068 77.4393L154.438 76.7829L152.925 76.7849C151.446 76.7869 151.386 76.797 150.305 77.2298C148.049 78.133 147.528 78.2727 146.405 78.2768C145.3 78.2807 145.321 78.2867 142.388 77.1852C141.619 76.8962 141.153 76.8005 140.292 76.7548C138.979 76.6849 138.279 76.836 136.391 77.5975C134.034 78.5477 132.858 78.5372 130.393 77.5437C128.779 76.8927 128.073 76.7243 126.962 76.7243C125.849 76.7243 125.156 76.8904 123.585 77.533C122.945 77.7949 122.011 78.0926 121.509 78.1944C120.282 78.443 119.243 78.287 117.533 77.5975C115.651 76.8386 114.945 76.6855 113.631 76.7516C112.686 76.7994 112.338 76.8796 111.244 77.3021C108.921 78.1996 108.646 78.2711 107.519 78.2711C106.391 78.2711 106.116 78.1996 103.793 77.3021C102.694 76.8776 102.353 76.7995 101.391 76.7509C100.037 76.6827 99.4947 76.7974 97.6163 77.55C95.1122 78.5532 94.0111 78.5518 91.452 77.5422C90.6836 77.2391 89.809 76.931 89.5085 76.8577C88.7826 76.6805 87.1703 76.7011 86.4457 76.8969ZM87.0585 78.7019C85.858 78.9158 84.6411 79.4164 84.6411 79.6961C84.6411 79.9211 84.6264 79.9233 85.8062 79.5182C87.7431 78.8531 88.8929 78.9256 91.2192 79.8596C92.8242 80.5039 93.5569 80.6834 94.5721 80.681C95.5378 80.6786 96.5114 80.436 97.8502 79.864C100.013 78.9398 101.455 78.8496 103.282 79.5244C103.819 79.7229 104.704 80.0504 105.248 80.2522C106.137 80.5814 106.369 80.6189 107.519 80.6189C108.895 80.6189 108.749 80.657 111.768 79.509C112.636 79.179 112.901 79.132 113.922 79.1263C115.188 79.1194 115.582 79.212 117.28 79.9149C118.577 80.4519 119.535 80.6793 120.5 80.6792C121.482 80.6791 122.232 80.4909 123.895 79.8273C126.357 78.8454 127.551 78.8431 130.01 79.8156C131.708 80.487 132.48 80.6831 133.419 80.681C134.389 80.6788 135.386 80.4425 136.662 79.9122C138.309 79.2275 138.746 79.1223 139.943 79.1223C141.14 79.1223 141.577 79.2275 143.225 79.9122C145.763 80.9674 147.014 80.9463 149.916 79.7993C152.353 78.8361 153.557 78.8476 156.068 79.8582C158.845 80.9756 159.913 80.976 162.709 79.8603C165.06 78.9226 166.3 78.8474 168.148 79.5306C171.285 80.6903 171.001 80.6159 172.309 80.6203C173.347 80.6239 173.686 80.5741 174.547 80.2919C175.105 80.1089 175.62 79.8886 175.692 79.8022C175.988 79.4457 175.628 79.4523 174.553 79.8229C173.59 80.1547 173.255 80.2149 172.368 80.2149C171.457 80.2149 171.167 80.16 170.156 79.7951C166.868 78.6097 167.083 78.6667 165.906 78.6669C164.702 78.6672 164.303 78.7625 162.472 79.4886C160.973 80.0828 160.403 80.217 159.381 80.217C158.393 80.217 157.53 80.0099 156.228 79.4608C153.666 78.3804 152.37 78.3612 149.842 79.3661C148.043 80.0812 147.504 80.214 146.397 80.2156C145.355 80.2171 144.708 80.0565 143.145 79.4077C141.768 78.8363 141.004 78.657 139.943 78.657C138.882 78.657 138.118 78.8363 136.742 79.4077C135.179 80.0565 134.532 80.2171 133.49 80.2156C132.382 80.214 131.844 80.0812 130.045 79.3661C127.517 78.3613 126.365 78.3744 123.702 79.4376C122.125 80.0672 121.524 80.214 120.517 80.2156C119.497 80.2173 118.729 80.0319 117.234 79.4232C115.723 78.8082 115.028 78.6513 113.864 78.6623C112.83 78.6719 112.892 78.6551 109.731 79.7951C108.719 80.16 108.429 80.2149 107.519 80.2149C106.608 80.2149 106.318 80.16 105.307 79.7951C102.145 78.6551 102.207 78.6719 101.174 78.6623C100.009 78.6513 99.3148 78.8082 97.8037 79.4232C95.2455 80.4645 93.8151 80.4889 91.5513 79.5294C89.7092 78.7487 88.2764 78.4847 87.0585 78.7019Z" fill="white"/>
<path d="M49.5391 17.1096L51.9008 14.7861L54.2957 17.1273L51.9258 19.4974L50.7324 18.3035L49.5391 17.1096Z" fill="#FDB609"/>
<path d="M108.159 45.9337L109.409 44.6803C110.096 43.9908 110.673 43.4268 110.69 43.4268C110.708 43.4268 111.278 43.9825 111.958 44.6618L113.195 45.8967L111.931 47.1649L110.666 48.4332L109.413 47.1835L108.159 45.9337Z" fill="#F5851F"/>
<path d="M54.2002 21.8907L56.5826 19.5593L58.9402 21.9155L56.5826 24.2732L54.2002 21.8907Z" fill="#FDB609"/>
<path d="M46.9089 24.3302L44.5908 22.0485L46.9089 19.615L49.2551 22.0485L46.9089 24.3302Z" fill="#FDB609"/>
</svg>
